<svg xmlns="http://www.w3.org/2000/svg" xmlns:xlink="http://www.w3.org/1999/xlink" width="1210" height="776.43"><rect width="1210" height="776.43" rx="5" ry="5" class="a"/><svg y="0%" x="0%"><circle cx="20" cy="20" r="6" fill="#ff5f58"/><circle cx="40" cy="20" r="6" fill="#ffbd2e"/><circle cx="60" cy="20" r="6" fill="#18c132"/></svg><svg height="716.43" viewBox="0 0 117 71.643" width="1170" x="15" xmlns="http://www.w3.org/2000/svg" xmlns:xlink="http://www.w3.org/1999/xlink" y="50"><style>@keyframes k{0%{transform:translateX(0)}.48%{transform:translateX(-117px)}2.71%{transform:translateX(-234px)}3.98%{transform:translateX(-351px)}4.38%{transform:translateX(-468px)}4.74%{transform:translateX(-585px)}6.14%{transform:translateX(-702px)}7.39%{transform:translateX(-819px)}11.29%{transform:translateX(-936px)}11.96%{transform:translateX(-1053px)}12.46%{transform:translateX(-1170px)}12.83%{transform:translateX(-1287px)}13.35%{transform:translateX(-1404px)}13.61%{transform:translateX(-1521px)}13.89%{transform:translateX(-1638px)}14.22%{transform:translateX(-1755px)}14.71%{transform:translateX(-1872px)}15.03%{transform:translateX(-1989px)}15.37%{transform:translateX(-2106px)}18.38%{transform:translateX(-2223px)}18.66%{transform:translateX(-2340px)}19.34%{transform:translateX(-2457px)}19.66%{transform:translateX(-2574px)}21.15%{transform:translateX(-2691px)}22.18%{transform:translateX(-2808px)}23.49%{transform:translateX(-2925px)}24.08%{transform:translateX(-3042px)}25.2%{transform:translateX(-3159px)}25.83%{transform:translateX(-3276px)}25.84%{transform:translateX(-3393px)}30.75%{transform:translateX(-3510px)}31.67%{transform:translateX(-3627px)}31.94%{transform:translateX(-3744px)}32.3%{transform:translateX(-3861px)}35.27%{transform:translateX(-3978px)}37.48%{transform:translateX(-4095px)}38.22%{transform:translateX(-4212px)}38.59%{transform:translateX(-4329px)}39.09%{transform:translateX(-4446px)}39.41%{transform:translateX(-4563px)}39.71%{transform:translateX(-4680px)}40.39%{transform:translateX(-4797px)}40.76%{transform:translateX(-4914px)}41.29%{transform:translateX(-5031px)}41.86%{transform:translateX(-5148px)}42.47%{transform:translateX(-5265px)}43.41%{transform:translateX(-5382px)}43.91%{transform:translateX(-5499px)}44.2%{transform:translateX(-5616px)}49.04%{transform:translateX(-5733px)}49.56%{transform:translateX(-5850px)}49.57%{transform:translateX(-5967px)}56.8%{transform:translateX(-6201px)}56.81%{transform:translateX(-6786px)}56.82%{transform:translateX(-7254px)}57.69%{transform:translateX(-7371px)}57.7%{transform:translateX(-7488px)}64.2%{transform:translateX(-7605px)}64.63%{transform:translateX(-7722px)}65.05%{transform:translateX(-7839px)}65.6%{transform:translateX(-7956px)}66.3%{transform:translateX(-8073px)}66.8%{transform:translateX(-8190px)}67.91%{transform:translateX(-8307px)}69.23%{transform:translateX(-8424px)}70.85%{transform:translateX(-8541px)}78.09%{transform:translateX(-8658px)}80.81%{transform:translateX(-8775px)}81.52%{transform:translateX(-8892px)}82.19%{transform:translateX(-9009px)}84.34%{transform:translateX(-9126px)}85.43%{transform:translateX(-9243px)}85.44%{transform:translateX(-9360px)}92.21%{transform:translateX(-9594px)}92.22%{transform:translateX(-9945px)}92.77%{transform:translateX(-10179px)}to{transform:translateX(-10296px)}}.a{fill:#282d35}.f,.g,.h{white-space:pre}.f{fill:#a8cc8c;font-weight:700}.g,.h{fill:#b9c0cb}.h{fill:#71bef2;font-weight:700}</style><g font-family="Monaco,Consolas,Menlo,'Bitstream Vera Sans Mono','Powerline Symbols',monospace" font-size="1.67"><defs><symbol id="1"><text y="1.67" class="f">michal@DESKTOP-5S02REP</text><text x="22.044" y="1.67" class="g">:</text><text x="23.046" y="1.67" class="h">~/projects/EE-operator</text><text x="45.09" y="1.67" class="g">$</text></symbol><symbol id="2"><text y="1.67" class="f">michal@DESKTOP-5S02REP</text><text x="22.044" y="1.67" class="g">:</text><text x="23.046" y="1.67" class="h">~/projects/EE-operator</text><text x="45.09" y="1.67" class="g">$</text><text x="47.094" y="1.67" class="g">k</text></symbol><symbol id="3"><text y="1.67" class="f">michal@DESKTOP-5S02REP</text><text x="22.044" y="1.67" class="g">:</text><text x="23.046" y="1.67" class="h">~/projects/EE-operator</text><text x="45.09" y="1.67" class="g">$</text><text x="47.094" y="1.67" class="g">ku</text></symbol><symbol id="4"><text y="1.67" class="f">michal@DESKTOP-5S02REP</text><text x="22.044" y="1.67" class="g">:</text><text x="23.046" y="1.67" class="h">~/projects/EE-operator</text><text x="45.09" y="1.67" class="g">$</text><text x="47.094" y="1.67" class="g">kub</text></symbol><symbol id="5"><text y="1.67" class="f">michal@DESKTOP-5S02REP</text><text x="22.044" y="1.67" class="g">:</text><text x="23.046" y="1.67" class="h">~/projects/EE-operator</text><text x="45.09" y="1.67" class="g">$</text><text x="47.094" y="1.67" class="g">kube</text></symbol><symbol id="6"><text y="1.67" class="f">michal@DESKTOP-5S02REP</text><text x="22.044" y="1.67" class="g">:</text><text x="23.046" y="1.67" class="h">~/projects/EE-operator</text><text x="45.09" y="1.67" class="g">$</text><text x="47.094" y="1.67" class="g">kubec</text></symbol><symbol id="7"><text y="1.67" class="f">michal@DESKTOP-5S02REP</text><text x="22.044" y="1.67" class="g">:</text><text x="23.046" y="1.67" class="h">~/projects/EE-operator</text><text x="45.09" y="1.67" class="g">$</text><text x="47.094" y="1.67" class="g">kubect</text></symbol><symbol id="8"><text y="1.67" class="f">michal@DESKTOP-5S02REP</text><text x="22.044" y="1.67" class="g">:</text><text x="23.046" y="1.67" class="h">~/projects/EE-operator</text><text x="45.09" y="1.67" class="g">$</text><text x="47.094" y="1.67" class="g">kubectl</text></symbol><symbol id="9"><text y="1.67" class="f">michal@DESKTOP-5S02REP</text><text x="22.044" y="1.67" class="g">:</text><text x="23.046" y="1.67" class="h">~/projects/EE-operator</text><text x="45.09" y="1.67" class="g">$</text><text x="47.094" y="1.67" class="g">kubectl</text><text x="55.11" y="1.67" class="g">apply</text></symbol><symbol id="10"><text y="1.67" class="f">michal@DESKTOP-5S02REP</text><text x="22.044" y="1.67" class="g">:</text><text x="23.046" y="1.67" class="h">~/projects/EE-operator</text><text x="45.09" y="1.67" class="g">$</text><text x="47.094" y="1.67" class="g">kubectl</text><text x="55.11" y="1.67" class="g">apply</text><text x="61.122" y="1.67" class="g">-f</text></symbol><symbol id="11"><text y="1.67" class="f">michal@DESKTOP-5S02REP</text><text x="22.044" y="1.67" class="g">:</text><text x="23.046" y="1.67" class="h">~/projects/EE-operator</text><text x="45.09" y="1.67" class="g">$</text><text x="47.094" y="1.67" class="g">kubectl</text><text x="55.11" y="1.67" class="g">apply</text><text x="61.122" y="1.67" class="g">-f</text><text x="64.128" y="1.67" class="g">config/samples/ephemeral_v1alpha1_ephemeralenvironmen</text></symbol><symbol id="12"><text y="1.67" class="g">t.yaml</text></symbol><symbol id="13"><text y="1.67" class="g">ephemeralenvironment.ephemeral.hoaqim.dev/ephemeralenvironment-sample</text><text x="70.14" y="1.67" class="g">created</text></symbol><symbol id="14"><text y="1.67" class="f">michal@DESKTOP-5S02REP</text><text x="22.044" y="1.67" class="g">:</text><text x="23.046" y="1.67" class="h">~/projects/EE-operator</text><text x="45.09" y="1.67" class="g">$</text><text x="47.094" y="1.67" class="g">kubectl</text><text x="55.11" y="1.67" class="g">get</text></symbol><symbol id="15"><text y="1.67" class="f">michal@DESKTOP-5S02REP</text><text x="22.044" y="1.67" class="g">:</text><text x="23.046" y="1.67" class="h">~/projects/EE-operator</text><text x="45.09" y="1.67" class="g">$</text><text x="47.094" y="1.67" class="g">kubectl</text><text x="55.11" y="1.67" class="g">get</text><text x="59.118" y="1.67" class="g">ephenv</text></symbol><symbol id="16"><text y="1.67" class="g">NAME</text><text x="30.06" y="1.67" class="g">PHASE</text><text x="38.076" y="1.67" class="g">TTL</text><text x="44.088" y="1.67" class="g">EXPIRES</text><text x="67.134" y="1.67" class="g">NAMESPACE</text><text x="106.212" y="1.67" class="g">AGE</text></symbol><symbol id="17"><text y="1.67" class="g">ephemeralenvironment-sample</text><text x="30.06" y="1.67" class="g">Ready</text><text x="38.076" y="1.67" class="g">30s</text><text x="44.088" y="1.67" class="g">2026-05-31T09:31:41Z</text><text x="67.134" y="1.67" class="g">ee-ephemeralenvironment-sample-wdw9t</text><text x="106.212" y="1.67" class="g">7s</text></symbol><symbol id="18"><text y="1.67" class="f">michal@DESKTOP-5S02REP</text><text x="22.044" y="1.67" class="g">:</text><text x="23.046" y="1.67" class="h">~/projects/EE-operator</text><text x="45.09" y="1.67" class="g">$</text><text x="47.094" y="1.67" class="g">kubectl</text><text x="55.11" y="1.67" class="g">get</text><text x="59.118" y="1.67" class="g">pods</text><text x="64.128" y="1.67" class="g">-n</text><text x="67.134" y="1.67" class="g">$(kubectl</text><text x="77.154" y="1.67" class="g">get</text><text x="81.162" y="1.67" class="g">ephenv</text><text x="88.176" y="1.67" class="g">ephemeralenvironment-sample</text><text x="116.232" y="1.67" class="g">-</text></symbol><symbol id="19"><text y="1.67" class="g">o</text><text x="2.004" y="1.67" class="g">jsonpath=&apos;{.status.namespace}&apos;)</text></symbol><symbol id="20"><text y="1.67" class="g">NAME</text><text x="47.094" y="1.67" class="g">READY</text><text x="55.11" y="1.67" class="g">STATUS</text><text x="65.13" y="1.67" class="g">RESTARTS</text><text x="76.152" y="1.67" class="g">AGE</text></symbol><symbol id="21"><text y="1.67" class="g">ephemeralenvironment-sample-678fc7b886-mp6v6</text><text x="47.094" y="1.67" class="g">1/1</text><text x="55.11" y="1.67" class="g">Running</text><text x="65.13" y="1.67" class="g">0</text><text x="76.152" y="1.67" class="g">9s</text></symbol><symbol id="22"><text y="1.67" class="f">michal@DESKTOP-5S02REP</text><text x="22.044" y="1.67" class="g">:</text><text x="23.046" y="1.67" class="h">~/projects/EE-operator</text><text x="45.09" y="1.67" class="g">$</text><text x="47.094" y="1.67" class="g">sleep</text></symbol><symbol id="23"><text y="1.67" class="f">michal@DESKTOP-5S02REP</text><text x="22.044" y="1.67" class="g">:</text><text x="23.046" y="1.67" class="h">~/projects/EE-operator</text><text x="45.09" y="1.67" class="g">$</text><text x="47.094" y="1.67" class="g">sleep</text><text x="53.106" y="1.67" class="g">30</text></symbol><symbol id="24"><text y="1.67" class="g">No</text><text x="3.006" y="1.67" class="g">resources</text><text x="13.026" y="1.67" class="g">found</text><text x="19.038" y="1.67" class="g">in</text><text x="22.044" y="1.67" class="g">default</text><text x="30.06" y="1.67" class="g">namespace.</text></symbol><symbol id="25"><text y="1.67" class="f">michal@DESKTOP-5S02REP</text><text x="22.044" y="1.67" class="g">:</text><text x="23.046" y="1.67" class="h">~/projects/EE-operator</text><text x="45.09" y="1.67" class="g">$</text><text x="47.094" y="1.67" class="g">kubectl</text><text x="55.11" y="1.67" class="g">get</text><text x="59.118" y="1.67" class="g">ns</text><text x="62.124" y="1.67" class="g">|</text><text x="64.128" y="1.67" class="g">grep</text><text x="69.138" y="1.67" class="g">ee-ephemeralenvironment-sample</text><text x="100.2" y="1.67" class="g">||</text><text x="103.206" y="1.67" class="g">echo</text><text x="108.216" y="1.67" class="g">&quot;namespac</text></symbol><symbol id="26"><text y="1.67" class="g">e</text><text x="2.004" y="1.67" class="g">gone</text><text x="7.014" y="1.67" class="g">—</text><text x="9.018" y="1.67" class="g">self-destructed&quot;</text></symbol><symbol id="27"><text y="1.67" class="g">namespace</text><text x="10.02" y="1.67" class="g">gone</text><text x="15.03" y="1.67" class="g">—</text><text x="17.034" y="1.67" class="g">self-destructed</text></symbol><symbol id="a"><path fill="transparent" d="M0 0h117v33H0z"/></symbol><symbol id="b"><path fill="#6f7683" d="M0 0h1.102v2.171H0z"/></symbol></defs><path class="a" d="M0 0h117v71.643H0z"/><g style="animation-duration:27.656865s;animation-iteration-count:infinite;animation-name:k;animation-timing-function:steps(1,end)"><svg width="10413"><svg><use xlink:href="#a"/><use xlink:href="#b" x="-.004"/></svg><svg x="117"><use xlink:href="#a"/><use xlink:href="#b" x="46.996"/><use xlink:href="#1"/></svg><svg x="234"><use xlink:href="#a"/><use xlink:href="#b" x="47.996"/><use xlink:href="#2"/></svg><svg x="351"><use xlink:href="#a"/><use xlink:href="#b" x="48.996"/><use xlink:href="#3"/></svg><svg x="468"><use xlink:href="#a"/><use xlink:href="#b" x="49.996"/><use xlink:href="#4"/></svg><svg x="585"><use xlink:href="#a"/><use xlink:href="#b" x="50.996"/><use xlink:href="#5"/></svg><svg x="702"><use xlink:href="#a"/><use xlink:href="#b" x="51.996"/><use xlink:href="#6"/></svg><svg x="819"><use xlink:href="#a"/><use xlink:href="#b" x="52.996"/><use xlink:href="#7"/></svg><svg x="936"><use xlink:href="#a"/><use xlink:href="#b" x="53.996"/><use xlink:href="#8"/></svg><svg x="1053"><use xlink:href="#a"/><use xlink:href="#b" x="54.996"/><use xlink:href="#8"/></svg><svg x="1170"><use xlink:href="#a"/><use xlink:href="#b" x="55.996"/><text y="1.67" class="f">michal@DESKTOP-5S02REP</text><text x="22.044" y="1.67" class="g">:</text><text x="23.046" y="1.67" class="h">~/projects/EE-operator</text><text x="45.09" y="1.67" class="g">$</text><text x="47.094" y="1.67" class="g">kubectl</text><text x="55.11" y="1.67" class="g">a</text></svg><svg x="1287"><use xlink:href="#a"/><use xlink:href="#b" x="56.996"/><text y="1.67" class="f">michal@DESKTOP-5S02REP</text><text x="22.044" y="1.67" class="g">:</text><text x="23.046" y="1.67" class="h">~/projects/EE-operator</text><text x="45.09" y="1.67" class="g">$</text><text x="47.094" y="1.67" class="g">kubectl</text><text x="55.11" y="1.67" class="g">ap</text></svg><svg x="1404"><use xlink:href="#a"/><use xlink:href="#b" x="57.996"/><text y="1.67" class="f">michal@DESKTOP-5S02REP</text><text x="22.044" y="1.67" class="g">:</text><text x="23.046" y="1.67" class="h">~/projects/EE-operator</text><text x="45.09" y="1.67" class="g">$</text><text x="47.094" y="1.67" class="g">kubectl</text><text x="55.11" y="1.67" class="g">app</text></svg><svg x="1521"><use xlink:href="#a"/><use xlink:href="#b" x="58.996"/><text y="1.67" class="f">michal@DESKTOP-5S02REP</text><text x="22.044" y="1.67" class="g">:</text><text x="23.046" y="1.67" class="h">~/projects/EE-operator</text><text x="45.09" y="1.67" class="g">$</text><text x="47.094" y="1.67" class="g">kubectl</text><text x="55.11" y="1.67" class="g">appl</text></svg><svg x="1638"><use xlink:href="#a"/><use xlink:href="#b" x="59.996"/><use xlink:href="#9"/></svg><svg x="1755"><use xlink:href="#a"/><use xlink:href="#b" x="60.996"/><use xlink:href="#9"/></svg><svg x="1872"><use xlink:href="#a"/><use xlink:href="#b" x="61.996"/><text y="1.67" class="f">michal@DESKTOP-5S02REP</text><text x="22.044" y="1.67" class="g">:</text><text x="23.046" y="1.67" class="h">~/projects/EE-operator</text><text x="45.09" y="1.67" class="g">$</text><text x="47.094" y="1.67" class="g">kubectl</text><text x="55.11" y="1.67" class="g">apply</text><text x="61.122" y="1.67" class="g">-</text></svg><svg x="1989"><use xlink:href="#a"/><use xlink:href="#b" x="62.996"/><use xlink:href="#10"/></svg><svg x="2106"><use xlink:href="#a"/><use xlink:href="#b" x="63.996"/><use xlink:href="#10"/></svg><svg x="2223"><use xlink:href="#a"/><use xlink:href="#b" x="64.996"/><text y="1.67" class="f">michal@DESKTOP-5S02REP</text><text x="22.044" y="1.67" class="g">:</text><text x="23.046" y="1.67" class="h">~/projects/EE-operator</text><text x="45.09" y="1.67" class="g">$</text><text x="47.094" y="1.67" class="g">kubectl</text><text x="55.11" y="1.67" class="g">apply</text><text x="61.122" y="1.67" class="g">-f</text><text x="64.128" y="1.67" class="g">c</text></svg><svg x="2340"><use xlink:href="#a"/><use xlink:href="#b" x="65.996"/><text y="1.67" class="f">michal@DESKTOP-5S02REP</text><text x="22.044" y="1.67" class="g">:</text><text x="23.046" y="1.67" class="h">~/projects/EE-operator</text><text x="45.09" y="1.67" class="g">$</text><text x="47.094" y="1.67" class="g">kubectl</text><text x="55.11" y="1.67" class="g">apply</text><text x="61.122" y="1.67" class="g">-f</text><text x="64.128" y="1.67" class="g">co</text></svg><svg x="2457"><use xlink:href="#a"/><use xlink:href="#b" x="66.996"/><text y="1.67" class="f">michal@DESKTOP-5S02REP</text><text x="22.044" y="1.67" class="g">:</text><text x="23.046" y="1.67" class="h">~/projects/EE-operator</text><text x="45.09" y="1.67" class="g">$</text><text x="47.094" y="1.67" class="g">kubectl</text><text x="55.11" y="1.67" class="g">apply</text><text x="61.122" y="1.67" class="g">-f</text><text x="64.128" y="1.67" class="g">con</text></svg><svg x="2574"><use xlink:href="#a"/><use xlink:href="#b" x="70.996"/><text y="1.67" class="f">michal@DESKTOP-5S02REP</text><text x="22.044" y="1.67" class="g">:</text><text x="23.046" y="1.67" class="h">~/projects/EE-operator</text><text x="45.09" y="1.67" class="g">$</text><text x="47.094" y="1.67" class="g">kubectl</text><text x="55.11" y="1.67" class="g">apply</text><text x="61.122" y="1.67" class="g">-f</text><text x="64.128" y="1.67" class="g">config/</text></svg><svg x="2691"><use xlink:href="#a"/><use xlink:href="#b" x="71.996"/><text y="1.67" class="f">michal@DESKTOP-5S02REP</text><text x="22.044" y="1.67" class="g">:</text><text x="23.046" y="1.67" class="h">~/projects/EE-operator</text><text x="45.09" y="1.67" class="g">$</text><text x="47.094" y="1.67" class="g">kubectl</text><text x="55.11" y="1.67" class="g">apply</text><text x="61.122" y="1.67" class="g">-f</text><text x="64.128" y="1.67" class="g">config/s</text></svg><svg x="2808"><use xlink:href="#a"/><use xlink:href="#b" x="78.996"/><text y="1.67" class="f">michal@DESKTOP-5S02REP</text><text x="22.044" y="1.67" class="g">:</text><text x="23.046" y="1.67" class="h">~/projects/EE-operator</text><text x="45.09" y="1.67" class="g">$</text><text x="47.094" y="1.67" class="g">kubectl</text><text x="55.11" y="1.67" class="g">apply</text><text x="61.122" y="1.67" class="g">-f</text><text x="64.128" y="1.67" class="g">config/samples/</text></svg><svg x="2925"><use xlink:href="#a"/><use xlink:href="#b" x="79.996"/><text y="1.67" class="f">michal@DESKTOP-5S02REP</text><text x="22.044" y="1.67" class="g">:</text><text x="23.046" y="1.67" class="h">~/projects/EE-operator</text><text x="45.09" y="1.67" class="g">$</text><text x="47.094" y="1.67" class="g">kubectl</text><text x="55.11" y="1.67" class="g">apply</text><text x="61.122" y="1.67" class="g">-f</text><text x="64.128" y="1.67" class="g">config/samples/e</text></svg><svg x="3042"><use xlink:href="#a"/><use xlink:href="#b" x="6.996" y="2.146"/><use xlink:href="#11"/><use xlink:href="#12" y="2.171"/></svg><svg x="3159"><use xlink:href="#a"/><use xlink:href="#b" x="-.004" y="4.317"/><use xlink:href="#11"/><use xlink:href="#12" y="2.171"/></svg><svg x="3276"><use xlink:href="#a"/><use xlink:href="#b" x="-.004" y="6.488"/><use xlink:href="#11"/><use xlink:href="#12" y="2.171"/><use xlink:href="#13" y="4.342"/></svg><svg x="3393"><use xlink:href="#a"/><use xlink:href="#b" x="46.996" y="6.488"/><use xlink:href="#11"/><use xlink:href="#12" y="2.171"/><use xlink:href="#13" y="4.342"/><use xlink:href="#1" y="6.513"/></svg><svg x="3510"><use xlink:href="#a"/><use xlink:href="#b" x="47.996" y="6.488"/><use xlink:href="#11"/><use xlink:href="#12" y="2.171"/><use xlink:href="#13" y="4.342"/><use xlink:href="#2" y="6.513"/></svg><svg x="3627"><use xlink:href="#a"/><use xlink:href="#b" x="48.996" y="6.488"/><use xlink:href="#11"/><use xlink:href="#12" y="2.171"/><use xlink:href="#13" y="4.342"/><use xlink:href="#3" y="6.513"/></svg><svg x="3744"><use xlink:href="#a"/><use xlink:href="#b" x="49.996" y="6.488"/><use xlink:href="#11"/><use xlink:href="#12" y="2.171"/><use xlink:href="#13" y="4.342"/><use xlink:href="#4" y="6.513"/></svg><svg x="3861"><use xlink:href="#a"/><use xlink:href="#b" x="50.996" y="6.488"/><use xlink:href="#11"/><use xlink:href="#12" y="2.171"/><use xlink:href="#13" y="4.342"/><use xlink:href="#5" y="6.513"/></svg><svg x="3978"><use xlink:href="#a"/><use xlink:href="#b" x="50.996" y="6.488"/><use xlink:href="#11"/><use xlink:href="#12" y="2.171"/><use xlink:href="#13" y="4.342"/><use xlink:href="#5" y="6.513"/></svg><svg x="4095"><use xlink:href="#a"/><use xlink:href="#b" x="51.996" y="6.488"/><use xlink:href="#11"/><use xlink:href="#12" y="2.171"/><use xlink:href="#13" y="4.342"/><use xlink:href="#6" y="6.513"/></svg><svg x="4212"><use xlink:href="#a"/><use xlink:href="#b" x="52.996" y="6.488"/><use xlink:href="#11"/><use xlink:href="#12" y="2.171"/><use xlink:href="#13" y="4.342"/><use xlink:href="#7" y="6.513"/></svg><svg x="4329"><use xlink:href="#a"/><use xlink:href="#b" x="53.996" y="6.488"/><use xlink:href="#11"/><use xlink:href="#12" y="2.171"/><use xlink:href="#13" y="4.342"/><use xlink:href="#8" y="6.513"/></svg><svg x="4446"><use xlink:href="#a"/><use xlink:href="#b" x="54.996" y="6.488"/><use xlink:href="#11"/><use xlink:href="#12" y="2.171"/><use xlink:href="#13" y="4.342"/><use xlink:href="#8" y="6.513"/></svg><svg x="4563"><use xlink:href="#a"/><use xlink:href="#b" x="55.996" y="6.488"/><use xlink:href="#11"/><use xlink:href="#12" y="2.171"/><use xlink:href="#13" y="4.342"/><text y="8.183" class="f">michal@DESKTOP-5S02REP</text><text x="22.044" y="8.183" class="g">:</text><text x="23.046" y="8.183" class="h">~/projects/EE-operator</text><text x="45.09" y="8.183" class="g">$</text><text x="47.094" y="8.183" class="g">kubectl</text><text x="55.11" y="8.183" class="g">g</text></svg><svg x="4680"><use xlink:href="#a"/><use xlink:href="#b" x="56.996" y="6.488"/><use xlink:href="#11"/><use xlink:href="#12" y="2.171"/><use xlink:href="#13" y="4.342"/><text y="8.183" class="f">michal@DESKTOP-5S02REP</text><text x="22.044" y="8.183" class="g">:</text><text x="23.046" y="8.183" class="h">~/projects/EE-operator</text><text x="45.09" y="8.183" class="g">$</text><text x="47.094" y="8.183" class="g">kubectl</text><text x="55.11" y="8.183" class="g">ge</text></svg><svg x="4797"><use xlink:href="#a"/><use xlink:href="#b" x="57.996" y="6.488"/><use xlink:href="#11"/><use xlink:href="#12" y="2.171"/><use xlink:href="#13" y="4.342"/><use xlink:href="#14" y="6.513"/></svg><svg x="4914"><use xlink:href="#a"/><use xlink:href="#b" x="58.996" y="6.488"/><use xlink:href="#11"/><use xlink:href="#12" y="2.171"/><use xlink:href="#13" y="4.342"/><use xlink:href="#14" y="6.513"/></svg><svg x="5031"><use xlink:href="#a"/><use xlink:href="#b" x="59.996" y="6.488"/><use xlink:href="#11"/><use xlink:href="#12" y="2.171"/><use xlink:href="#13" y="4.342"/><text y="8.183" class="f">michal@DESKTOP-5S02REP</text><text x="22.044" y="8.183" class="g">:</text><text x="23.046" y="8.183" class="h">~/projects/EE-operator</text><text x="45.09" y="8.183" class="g">$</text><text x="47.094" y="8.183" class="g">kubectl</text><text x="55.11" y="8.183" class="g">get</text><text x="59.118" y="8.183" class="g">e</text></svg><svg x="5148"><use xlink:href="#a"/><use xlink:href="#b" x="60.996" y="6.488"/><use xlink:href="#11"/><use xlink:href="#12" y="2.171"/><use xlink:href="#13" y="4.342"/><text y="8.183" class="f">michal@DESKTOP-5S02REP</text><text x="22.044" y="8.183" class="g">:</text><text x="23.046" y="8.183" class="h">~/projects/EE-operator</text><text x="45.09" y="8.183" class="g">$</text><text x="47.094" y="8.183" class="g">kubectl</text><text x="55.11" y="8.183" class="g">get</text><text x="59.118" y="8.183" class="g">ep</text></svg><svg x="5265"><use xlink:href="#a"/><use xlink:href="#b" x="61.996" y="6.488"/><use xlink:href="#11"/><use xlink:href="#12" y="2.171"/><use xlink:href="#13" y="4.342"/><text y="8.183" class="f">michal@DESKTOP-5S02REP</text><text x="22.044" y="8.183" class="g">:</text><text x="23.046" y="8.183" class="h">~/projects/EE-operator</text><text x="45.09" y="8.183" class="g">$</text><text x="47.094" y="8.183" class="g">kubectl</text><text x="55.11" y="8.183" class="g">get</text><text x="59.118" y="8.183" class="g">eph</text></svg><svg x="5382"><use xlink:href="#a"/><use xlink:href="#b" x="62.996" y="6.488"/><use xlink:href="#11"/><use xlink:href="#12" y="2.171"/><use xlink:href="#13" y="4.342"/><text y="8.183" class="f">michal@DESKTOP-5S02REP</text><text x="22.044" y="8.183" class="g">:</text><text x="23.046" y="8.183" class="h">~/projects/EE-operator</text><text x="45.09" y="8.183" class="g">$</text><text x="47.094" y="8.183" class="g">kubectl</text><text x="55.11" y="8.183" class="g">get</text><text x="59.118" y="8.183" class="g">ephe</text></svg><svg x="5499"><use xlink:href="#a"/><use xlink:href="#b" x="63.996" y="6.488"/><use xlink:href="#11"/><use xlink:href="#12" y="2.171"/><use xlink:href="#13" y="4.342"/><text y="8.183" class="f">michal@DESKTOP-5S02REP</text><text x="22.044" y="8.183" class="g">:</text><text x="23.046" y="8.183" class="h">~/projects/EE-operator</text><text x="45.09" y="8.183" class="g">$</text><text x="47.094" y="8.183" class="g">kubectl</text><text x="55.11" y="8.183" class="g">get</text><text x="59.118" y="8.183" class="g">ephen</text></svg><svg x="5616"><use xlink:href="#a"/><use xlink:href="#b" x="64.996" y="6.488"/><use xlink:href="#11"/><use xlink:href="#12" y="2.171"/><use xlink:href="#13" y="4.342"/><use xlink:href="#15" y="6.513"/></svg><svg x="5733"><use xlink:href="#a"/><use xlink:href="#b" x="-.004" y="8.659"/><use xlink:href="#11"/><use xlink:href="#12" y="2.171"/><use xlink:href="#13" y="4.342"/><use xlink:href="#15" y="6.513"/></svg><svg x="5850"><use xlink:href="#a"/><use xlink:href="#b" x="-.004" y="13.001"/><use xlink:href="#11"/><use xlink:href="#12" y="2.171"/><use xlink:href="#13" y="4.342"/><use xlink:href="#15" y="6.513"/><use xlink:href="#16" y="8.684"/><use xlink:href="#17" y="10.855"/></svg><svg x="5967"><use xlink:href="#a"/><use xlink:href="#b" x="46.996" y="13.001"/><use xlink:href="#11"/><use xlink:href="#12" y="2.171"/><use xlink:href="#13" y="4.342"/><use xlink:href="#15" y="6.513"/><use xlink:href="#16" y="8.684"/><use xlink:href="#17" y="10.855"/><use xlink:href="#1" y="13.026"/></svg><svg x="6084"><use xlink:href="#a"/><use xlink:href="#b" x="62.996" y="13.001"/><use xlink:href="#11"/><use xlink:href="#12" y="2.171"/><use xlink:href="#13" y="4.342"/><use xlink:href="#15" y="6.513"/><use xlink:href="#16" y="8.684"/><use xlink:href="#17" y="10.855"/><text y="14.696" class="f">michal@DESKTOP-5S02REP</text><text x="22.044" y="14.696" class="g">:</text><text x="23.046" y="14.696" class="h">~/projects/EE-operator</text><text x="45.09" y="14.696" class="g">$</text><text x="47.094" y="14.696" class="g">kubectl</text><text x="55.11" y="14.696" class="g">get</text><text x="59.118" y="14.696" class="g">pods</text></svg><svg x="6201"><use xlink:href="#a"/><use xlink:href="#b" x="68.996" y="13.001"/><use xlink:href="#11"/><use xlink:href="#12" y="2.171"/><use xlink:href="#13" y="4.342"/><use xlink:href="#15" y="6.513"/><use xlink:href="#16" y="8.684"/><use xlink:href="#17" y="10.855"/><text y="14.696" class="f">michal@DESKTOP-5S02REP</text><text x="22.044" y="14.696" class="g">:</text><text x="23.046" y="14.696" class="h">~/projects/EE-operator</text><text x="45.09" y="14.696" class="g">$</text><text x="47.094" y="14.696" class="g">kubectl</text><text x="55.11" y="14.696" class="g">get</text><text x="59.118" y="14.696" class="g">pods</text><text x="64.128" y="14.696" class="g">-n</text><text x="67.134" y="14.696" class="g">$(</text></svg><svg x="6318"><use xlink:href="#a"/><use xlink:href="#b" x="76.996" y="13.001"/><use xlink:href="#11"/><use xlink:href="#12" y="2.171"/><use xlink:href="#13" y="4.342"/><use xlink:href="#15" y="6.513"/><use xlink:href="#16" y="8.684"/><use xlink:href="#17" y="10.855"/><text y="14.696" class="f">michal@DESKTOP-5S02REP</text><text x="22.044" y="14.696" class="g">:</text><text x="23.046" y="14.696" class="h">~/projects/EE-operator</text><text x="45.09" y="14.696" class="g">$</text><text x="47.094" y="14.696" class="g">kubectl</text><text x="55.11" y="14.696" class="g">get</text><text x="59.118" y="14.696" class="g">pods</text><text x="64.128" y="14.696" class="g">-n</text><text x="67.134" y="14.696" class="g">$(kubectl</text></svg><svg x="6435"><use xlink:href="#a"/><use xlink:href="#b" x="100.996" y="13.001"/><use xlink:href="#11"/><use xlink:href="#12" y="2.171"/><use xlink:href="#13" y="4.342"/><use xlink:href="#15" y="6.513"/><use xlink:href="#16" y="8.684"/><use xlink:href="#17" y="10.855"/><text y="14.696" class="f">michal@DESKTOP-5S02REP</text><text x="22.044" y="14.696" class="g">:</text><text x="23.046" y="14.696" class="h">~/projects/EE-operator</text><text x="45.09" y="14.696" class="g">$</text><text x="47.094" y="14.696" class="g">kubectl</text><text x="55.11" y="14.696" class="g">get</text><text x="59.118" y="14.696" class="g">pods</text><text x="64.128" y="14.696" class="g">-n</text><text x="67.134" y="14.696" class="g">$(kubectl</text><text x="77.154" y="14.696" class="g">get</text><text x="81.162" y="14.696" class="g">ephenv</text><text x="88.176" y="14.696" class="g">ephemeralenvi</text></svg><svg x="6552"><use xlink:href="#a"/><use xlink:href="#b" x="108.996" y="13.001"/><use xlink:href="#11"/><use xlink:href="#12" y="2.171"/><use xlink:href="#13" y="4.342"/><use xlink:href="#15" y="6.513"/><use xlink:href="#16" y="8.684"/><use xlink:href="#17" y="10.855"/><text y="14.696" class="f">michal@DESKTOP-5S02REP</text><text x="22.044" y="14.696" class="g">:</text><text x="23.046" y="14.696" class="h">~/projects/EE-operator</text><text x="45.09" y="14.696" class="g">$</text><text x="47.094" y="14.696" class="g">kubectl</text><text x="55.11" y="14.696" class="g">get</text><text x="59.118" y="14.696" class="g">pods</text><text x="64.128" y="14.696" class="g">-n</text><text x="67.134" y="14.696" class="g">$(kubectl</text><text x="77.154" y="14.696" class="g">get</text><text x="81.162" y="14.696" class="g">ephenv</text><text x="88.176" y="14.696" class="g">ephemeralenvironment-</text></svg><svg x="6669"><use xlink:href="#a"/><use xlink:href="#b" x="-.004" y="15.172"/><use xlink:href="#11"/><use xlink:href="#12" y="2.171"/><use xlink:href="#13" y="4.342"/><use xlink:href="#15" y="6.513"/><use xlink:href="#16" y="8.684"/><use xlink:href="#17" y="10.855"/><use xlink:href="#18" y="13.026"/></svg><svg x="6786"><use xlink:href="#a"/><use xlink:href="#b" x="7.996" y="15.172"/><use xlink:href="#11"/><use xlink:href="#12" y="2.171"/><use xlink:href="#13" y="4.342"/><use xlink:href="#15" y="6.513"/><use xlink:href="#16" y="8.684"/><use xlink:href="#17" y="10.855"/><use xlink:href="#18" y="13.026"/><text y="16.867" class="g">o</text><text x="2.004" y="16.867" class="g">jsonpa</text></svg><svg x="6903"><use xlink:href="#a"/><use xlink:href="#b" x="14.996" y="15.172"/><use xlink:href="#11"/><use xlink:href="#12" y="2.171"/><use xlink:href="#13" y="4.342"/><use xlink:href="#15" y="6.513"/><use xlink:href="#16" y="8.684"/><use xlink:href="#17" y="10.855"/><use xlink:href="#18" y="13.026"/><text y="16.867" class="g">o</text><text x="2.004" y="16.867" class="g">jsonpath=&apos;{.s</text></svg><svg x="7020"><use xlink:href="#a"/><use xlink:href="#b" x="22.996" y="15.172"/><use xlink:href="#11"/><use xlink:href="#12" y="2.171"/><use xlink:href="#13" y="4.342"/><use xlink:href="#15" y="6.513"/><use xlink:href="#16" y="8.684"/><use xlink:href="#17" y="10.855"/><use xlink:href="#18" y="13.026"/><text y="16.867" class="g">o</text><text x="2.004" y="16.867" class="g">jsonpath=&apos;{.status.na</text></svg><svg x="7137"><use xlink:href="#a"/><use xlink:href="#b" x="30.996" y="15.172"/><use xlink:href="#11"/><use xlink:href="#12" y="2.171"/><use xlink:href="#13" y="4.342"/><use xlink:href="#15" y="6.513"/><use xlink:href="#16" y="8.684"/><use xlink:href="#17" y="10.855"/><use xlink:href="#18" y="13.026"/><text y="16.867" class="g">o</text><text x="2.004" y="16.867" class="g">jsonpath=&apos;{.status.namespace}</text></svg><svg x="7254"><use xlink:href="#a"/><use xlink:href="#b" x="-.004" y="17.343"/><use xlink:href="#11"/><use xlink:href="#12" y="2.171"/><use xlink:href="#13" y="4.342"/><use xlink:href="#15" y="6.513"/><use xlink:href="#16" y="8.684"/><use xlink:href="#17" y="10.855"/><use xlink:href="#18" y="13.026"/><use xlink:href="#19" y="15.197"/></svg><svg x="7371"><use xlink:href="#a"/><use xlink:href="#b" x="-.004" y="21.685"/><use xlink:href="#11"/><use xlink:href="#12" y="2.171"/><use xlink:href="#13" y="4.342"/><use xlink:href="#15" y="6.513"/><use xlink:href="#16" y="8.684"/><use xlink:href="#17" y="10.855"/><use xlink:href="#18" y="13.026"/><use xlink:href="#19" y="15.197"/><use xlink:href="#20" y="17.368"/><use xlink:href="#21" y="19.539"/></svg><svg x="7488"><use xlink:href="#a"/><use xlink:href="#b" x="46.996" y="21.685"/><use xlink:href="#11"/><use xlink:href="#12" y="2.171"/><use xlink:href="#13" y="4.342"/><use xlink:href="#15" y="6.513"/><use xlink:href="#16" y="8.684"/><use xlink:href="#17" y="10.855"/><use xlink:href="#18" y="13.026"/><use xlink:href="#19" y="15.197"/><use xlink:href="#20" y="17.368"/><use xlink:href="#21" y="19.539"/><use xlink:href="#1" y="21.71"/></svg><svg x="7605"><use xlink:href="#a"/><use xlink:href="#b" x="47.996" y="21.685"/><use xlink:href="#11"/><use xlink:href="#12" y="2.171"/><use xlink:href="#13" y="4.342"/><use xlink:href="#15" y="6.513"/><use xlink:href="#16" y="8.684"/><use xlink:href="#17" y="10.855"/><use xlink:href="#18" y="13.026"/><use xlink:href="#19" y="15.197"/><use xlink:href="#20" y="17.368"/><use xlink:href="#21" y="19.539"/><text y="23.38" class="f">michal@DESKTOP-5S02REP</text><text x="22.044" y="23.38" class="g">:</text><text x="23.046" y="23.38" class="h">~/projects/EE-operator</text><text x="45.09" y="23.38" class="g">$</text><text x="47.094" y="23.38" class="g">s</text></svg><svg x="7722"><use xlink:href="#a"/><use xlink:href="#b" x="48.996" y="21.685"/><use xlink:href="#11"/><use xlink:href="#12" y="2.171"/><use xlink:href="#13" y="4.342"/><use xlink:href="#15" y="6.513"/><use xlink:href="#16" y="8.684"/><use xlink:href="#17" y="10.855"/><use xlink:href="#18" y="13.026"/><use xlink:href="#19" y="15.197"/><use xlink:href="#20" y="17.368"/><use xlink:href="#21" y="19.539"/><text y="23.38" class="f">michal@DESKTOP-5S02REP</text><text x="22.044" y="23.38" class="g">:</text><text x="23.046" y="23.38" class="h">~/projects/EE-operator</text><text x="45.09" y="23.38" class="g">$</text><text x="47.094" y="23.38" class="g">sl</text></svg><svg x="7839"><use xlink:href="#a"/><use xlink:href="#b" x="49.996" y="21.685"/><use xlink:href="#11"/><use xlink:href="#12" y="2.171"/><use xlink:href="#13" y="4.342"/><use xlink:href="#15" y="6.513"/><use xlink:href="#16" y="8.684"/><use xlink:href="#17" y="10.855"/><use xlink:href="#18" y="13.026"/><use xlink:href="#19" y="15.197"/><use xlink:href="#20" y="17.368"/><use xlink:href="#21" y="19.539"/><text y="23.38" class="f">michal@DESKTOP-5S02REP</text><text x="22.044" y="23.38" class="g">:</text><text x="23.046" y="23.38" class="h">~/projects/EE-operator</text><text x="45.09" y="23.38" class="g">$</text><text x="47.094" y="23.38" class="g">sle</text></svg><svg x="7956"><use xlink:href="#a"/><use xlink:href="#b" x="50.996" y="21.685"/><use xlink:href="#11"/><use xlink:href="#12" y="2.171"/><use xlink:href="#13" y="4.342"/><use xlink:href="#15" y="6.513"/><use xlink:href="#16" y="8.684"/><use xlink:href="#17" y="10.855"/><use xlink:href="#18" y="13.026"/><use xlink:href="#19" y="15.197"/><use xlink:href="#20" y="17.368"/><use xlink:href="#21" y="19.539"/><text y="23.38" class="f">michal@DESKTOP-5S02REP</text><text x="22.044" y="23.38" class="g">:</text><text x="23.046" y="23.38" class="h">~/projects/EE-operator</text><text x="45.09" y="23.38" class="g">$</text><text x="47.094" y="23.38" class="g">slee</text></svg><svg x="8073"><use xlink:href="#a"/><use xlink:href="#b" x="51.996" y="21.685"/><use xlink:href="#11"/><use xlink:href="#12" y="2.171"/><use xlink:href="#13" y="4.342"/><use xlink:href="#15" y="6.513"/><use xlink:href="#16" y="8.684"/><use xlink:href="#17" y="10.855"/><use xlink:href="#18" y="13.026"/><use xlink:href="#19" y="15.197"/><use xlink:href="#20" y="17.368"/><use xlink:href="#21" y="19.539"/><use xlink:href="#22" y="21.71"/></svg><svg x="8190"><use xlink:href="#a"/><use xlink:href="#b" x="52.996" y="21.685"/><use xlink:href="#11"/><use xlink:href="#12" y="2.171"/><use xlink:href="#13" y="4.342"/><use xlink:href="#15" y="6.513"/><use xlink:href="#16" y="8.684"/><use xlink:href="#17" y="10.855"/><use xlink:href="#18" y="13.026"/><use xlink:href="#19" y="15.197"/><use xlink:href="#20" y="17.368"/><use xlink:href="#21" y="19.539"/><use xlink:href="#22" y="21.71"/></svg><svg x="8307"><use xlink:href="#a"/><use xlink:href="#b" x="53.996" y="21.685"/><use xlink:href="#11"/><use xlink:href="#12" y="2.171"/><use xlink:href="#13" y="4.342"/><use xlink:href="#15" y="6.513"/><use xlink:href="#16" y="8.684"/><use xlink:href="#17" y="10.855"/><use xlink:href="#18" y="13.026"/><use xlink:href="#19" y="15.197"/><use xlink:href="#20" y="17.368"/><use xlink:href="#21" y="19.539"/><text y="23.38" class="f">michal@DESKTOP-5S02REP</text><text x="22.044" y="23.38" class="g">:</text><text x="23.046" y="23.38" class="h">~/projects/EE-operator</text><text x="45.09" y="23.38" class="g">$</text><text x="47.094" y="23.38" class="g">sleep</text><text x="53.106" y="23.38" class="g">3</text></svg><svg x="8424"><use xlink:href="#a"/><use xlink:href="#b" x="54.996" y="21.685"/><use xlink:href="#11"/><use xlink:href="#12" y="2.171"/><use xlink:href="#13" y="4.342"/><use xlink:href="#15" y="6.513"/><use xlink:href="#16" y="8.684"/><use xlink:href="#17" y="10.855"/><use xlink:href="#18" y="13.026"/><use xlink:href="#19" y="15.197"/><use xlink:href="#20" y="17.368"/><use xlink:href="#21" y="19.539"/><use xlink:href="#23" y="21.71"/></svg><svg x="8541"><use xlink:href="#a"/><use xlink:href="#b" x="-.004" y="23.856"/><use xlink:href="#11"/><use xlink:href="#12" y="2.171"/><use xlink:href="#13" y="4.342"/><use xlink:href="#15" y="6.513"/><use xlink:href="#16" y="8.684"/><use xlink:href="#17" y="10.855"/><use xlink:href="#18" y="13.026"/><use xlink:href="#19" y="15.197"/><use xlink:href="#20" y="17.368"/><use xlink:href="#21" y="19.539"/><use xlink:href="#23" y="21.71"/></svg><svg x="8658"><use xlink:href="#a"/><use xlink:href="#b" x="46.996" y="23.856"/><use xlink:href="#11"/><use xlink:href="#12" y="2.171"/><use xlink:href="#13" y="4.342"/><use xlink:href="#15" y="6.513"/><use xlink:href="#16" y="8.684"/><use xlink:href="#17" y="10.855"/><use xlink:href="#18" y="13.026"/><use xlink:href="#19" y="15.197"/><use xlink:href="#20" y="17.368"/><use xlink:href="#21" y="19.539"/><use xlink:href="#23" y="21.71"/><use xlink:href="#1" y="23.881"/></svg><svg x="8775"><use xlink:href="#a"/><use xlink:href="#b" x="54.996" y="23.856"/><use xlink:href="#11"/><use xlink:href="#12" y="2.171"/><use xlink:href="#13" y="4.342"/><use xlink:href="#15" y="6.513"/><use xlink:href="#16" y="8.684"/><use xlink:href="#17" y="10.855"/><use xlink:href="#18" y="13.026"/><use xlink:href="#19" y="15.197"/><use xlink:href="#20" y="17.368"/><use xlink:href="#21" y="19.539"/><use xlink:href="#23" y="21.71"/><use xlink:href="#23" y="23.881"/></svg><svg x="8892"><use xlink:href="#a"/><use xlink:href="#b" x="32.996" y="26.027"/><use xlink:href="#11"/><use xlink:href="#12" y="2.171"/><use xlink:href="#13" y="4.342"/><use xlink:href="#15" y="6.513"/><use xlink:href="#16" y="8.684"/><use xlink:href="#17" y="10.855"/><use xlink:href="#18" y="13.026"/><use xlink:href="#19" y="15.197"/><use xlink:href="#20" y="17.368"/><use xlink:href="#21" y="19.539"/><use xlink:href="#23" y="21.71"/><use xlink:href="#18" y="23.881"/><use xlink:href="#19" y="26.052"/></svg><svg x="9009"><use xlink:href="#a"/><use xlink:href="#b" x="64.996" y="23.856"/><use xlink:href="#11"/><use xlink:href="#12" y="2.171"/><use xlink:href="#13" y="4.342"/><use xlink:href="#15" y="6.513"/><use xlink:href="#16" y="8.684"/><use xlink:href="#17" y="10.855"/><use xlink:href="#18" y="13.026"/><use xlink:href="#19" y="15.197"/><use xlink:href="#20" y="17.368"/><use xlink:href="#21" y="19.539"/><use xlink:href="#23" y="21.71"/><use xlink:href="#15" y="23.881"/></svg><svg x="9126"><use xlink:href="#a"/><use xlink:href="#b" x="-.004" y="26.027"/><use xlink:href="#11"/><use xlink:href="#12" y="2.171"/><use xlink:href="#13" y="4.342"/><use xlink:href="#15" y="6.513"/><use xlink:href="#16" y="8.684"/><use xlink:href="#17" y="10.855"/><use xlink:href="#18" y="13.026"/><use xlink:href="#19" y="15.197"/><use xlink:href="#20" y="17.368"/><use xlink:href="#21" y="19.539"/><use xlink:href="#23" y="21.71"/><use xlink:href="#15" y="23.881"/></svg><svg x="9243"><use xlink:href="#a"/><use xlink:href="#b" x="-.004" y="28.198"/><use xlink:href="#11"/><use xlink:href="#12" y="2.171"/><use xlink:href="#13" y="4.342"/><use xlink:href="#15" y="6.513"/><use xlink:href="#16" y="8.684"/><use xlink:href="#17" y="10.855"/><use xlink:href="#18" y="13.026"/><use xlink:href="#19" y="15.197"/><use xlink:href="#20" y="17.368"/><use xlink:href="#21" y="19.539"/><use xlink:href="#23" y="21.71"/><use xlink:href="#15" y="23.881"/><use xlink:href="#24" y="26.052"/></svg><svg x="9360"><use xlink:href="#a"/><use xlink:href="#b" x="46.996" y="28.198"/><use xlink:href="#11"/><use xlink:href="#12" y="2.171"/><use xlink:href="#13" y="4.342"/><use xlink:href="#15" y="6.513"/><use xlink:href="#16" y="8.684"/><use xlink:href="#17" y="10.855"/><use xlink:href="#18" y="13.026"/><use xlink:href="#19" y="15.197"/><use xlink:href="#20" y="17.368"/><use xlink:href="#21" y="19.539"/><use xlink:href="#23" y="21.71"/><use xlink:href="#15" y="23.881"/><use xlink:href="#24" y="26.052"/><use xlink:href="#1" y="28.223"/></svg><svg x="9477"><use xlink:href="#a"/><use xlink:href="#b" x="62.996" y="28.198"/><use xlink:href="#11"/><use xlink:href="#12" y="2.171"/><use xlink:href="#13" y="4.342"/><use xlink:href="#15" y="6.513"/><use xlink:href="#16" y="8.684"/><use xlink:href="#17" y="10.855"/><use xlink:href="#18" y="13.026"/><use xlink:href="#19" y="15.197"/><use xlink:href="#20" y="17.368"/><use xlink:href="#21" y="19.539"/><use xlink:href="#23" y="21.71"/><use xlink:href="#15" y="23.881"/><use xlink:href="#24" y="26.052"/><text y="29.893" class="f">michal@DESKTOP-5S02REP</text><text x="22.044" y="29.893" class="g">:</text><text x="23.046" y="29.893" class="h">~/projects/EE-operator</text><text x="45.09" y="29.893" class="g">$</text><text x="47.094" y="29.893" class="g">kubectl</text><text x="55.11" y="29.893" class="g">get</text><text x="59.118" y="29.893" class="g">ns</text><text x="62.124" y="29.893" class="g">|</text></svg><svg x="9594"><use xlink:href="#a"/><use xlink:href="#b" x="77.996" y="28.198"/><use xlink:href="#11"/><use xlink:href="#12" y="2.171"/><use xlink:href="#13" y="4.342"/><use xlink:href="#15" y="6.513"/><use xlink:href="#16" y="8.684"/><use xlink:href="#17" y="10.855"/><use xlink:href="#18" y="13.026"/><use xlink:href="#19" y="15.197"/><use xlink:href="#20" y="17.368"/><use xlink:href="#21" y="19.539"/><use xlink:href="#23" y="21.71"/><use xlink:href="#15" y="23.881"/><use xlink:href="#24" y="26.052"/><text y="29.893" class="f">michal@DESKTOP-5S02REP</text><text x="22.044" y="29.893" class="g">:</text><text x="23.046" y="29.893" class="h">~/projects/EE-operator</text><text x="45.09" y="29.893" class="g">$</text><text x="47.094" y="29.893" class="g">kubectl</text><text x="55.11" y="29.893" class="g">get</text><text x="59.118" y="29.893" class="g">ns</text><text x="62.124" y="29.893" class="g">|</text><text x="64.128" y="29.893" class="g">grep</text><text x="69.138" y="29.893" class="g">ee-epheme</text></svg><svg x="9711"><use xlink:href="#a"/><use xlink:href="#b" x="100.996" y="28.198"/><use xlink:href="#11"/><use xlink:href="#12" y="2.171"/><use xlink:href="#13" y="4.342"/><use xlink:href="#15" y="6.513"/><use xlink:href="#16" y="8.684"/><use xlink:href="#17" y="10.855"/><use xlink:href="#18" y="13.026"/><use xlink:href="#19" y="15.197"/><use xlink:href="#20" y="17.368"/><use xlink:href="#21" y="19.539"/><use xlink:href="#23" y="21.71"/><use xlink:href="#15" y="23.881"/><use xlink:href="#24" y="26.052"/><text y="29.893" class="f">michal@DESKTOP-5S02REP</text><text x="22.044" y="29.893" class="g">:</text><text x="23.046" y="29.893" class="h">~/projects/EE-operator</text><text x="45.09" y="29.893" class="g">$</text><text x="47.094" y="29.893" class="g">kubectl</text><text x="55.11" y="29.893" class="g">get</text><text x="59.118" y="29.893" class="g">ns</text><text x="62.124" y="29.893" class="g">|</text><text x="64.128" y="29.893" class="g">grep</text><text x="69.138" y="29.893" class="g">ee-ephemeralenvironment-sample</text><text x="100.2" y="29.893" class="g">|</text></svg><svg x="9828"><use xlink:href="#a"/><use xlink:href="#b" x="5.996" y="30.369"/><use xlink:href="#11"/><use xlink:href="#12" y="2.171"/><use xlink:href="#13" y="4.342"/><use xlink:href="#15" y="6.513"/><use xlink:href="#16" y="8.684"/><use xlink:href="#17" y="10.855"/><use xlink:href="#18" y="13.026"/><use xlink:href="#19" y="15.197"/><use xlink:href="#20" y="17.368"/><use xlink:href="#21" y="19.539"/><use xlink:href="#23" y="21.71"/><use xlink:href="#15" y="23.881"/><use xlink:href="#24" y="26.052"/><use xlink:href="#25" y="28.223"/><text y="32.064" class="g">e</text><text x="2.004" y="32.064" class="g">gone</text></svg><svg x="9945"><use xlink:href="#a"/><use xlink:href="#b" x="-.004" y="32.54"/><use xlink:href="#11"/><use xlink:href="#12" y="2.171"/><use xlink:href="#13" y="4.342"/><use xlink:href="#15" y="6.513"/><use xlink:href="#16" y="8.684"/><use xlink:href="#17" y="10.855"/><use xlink:href="#18" y="13.026"/><use xlink:href="#19" y="15.197"/><use xlink:href="#20" y="17.368"/><use xlink:href="#21" y="19.539"/><use xlink:href="#23" y="21.71"/><use xlink:href="#15" y="23.881"/><use xlink:href="#24" y="26.052"/><use xlink:href="#25" y="28.223"/><use xlink:href="#26" y="30.394"/></svg><svg x="10062"><use xlink:href="#a"/><use xlink:href="#b" x="-.004" y="34.711"/><use xlink:href="#11"/><use xlink:href="#12" y="2.171"/><use xlink:href="#13" y="4.342"/><use xlink:href="#15" y="6.513"/><use xlink:href="#16" y="8.684"/><use xlink:href="#17" y="10.855"/><use xlink:href="#18" y="13.026"/><use xlink:href="#19" y="15.197"/><use xlink:href="#20" y="17.368"/><use xlink:href="#21" y="19.539"/><use xlink:href="#23" y="21.71"/><use xlink:href="#15" y="23.881"/><use xlink:href="#24" y="26.052"/><use xlink:href="#25" y="28.223"/><use xlink:href="#26" y="30.394"/><use xlink:href="#27" y="32.565"/></svg><svg x="10179"><use xlink:href="#a"/><use xlink:href="#b" x="46.996" y="34.711"/><use xlink:href="#11"/><use xlink:href="#12" y="2.171"/><use xlink:href="#13" y="4.342"/><use xlink:href="#15" y="6.513"/><use xlink:href="#16" y="8.684"/><use xlink:href="#17" y="10.855"/><use xlink:href="#18" y="13.026"/><use xlink:href="#19" y="15.197"/><use xlink:href="#20" y="17.368"/><use xlink:href="#21" y="19.539"/><use xlink:href="#23" y="21.71"/><use xlink:href="#15" y="23.881"/><use xlink:href="#24" y="26.052"/><use xlink:href="#25" y="28.223"/><use xlink:href="#26" y="30.394"/><use xlink:href="#27" y="32.565"/><use xlink:href="#1" y="34.736"/></svg><svg x="10296"><use xlink:href="#a"/><use xlink:href="#b" x="-.004" y="39.053"/><use xlink:href="#11"/><use xlink:href="#12" y="2.171"/><use xlink:href="#13" y="4.342"/><use xlink:href="#15" y="6.513"/><use xlink:href="#16" y="8.684"/><use xlink:href="#17" y="10.855"/><use xlink:href="#18" y="13.026"/><use xlink:href="#19" y="15.197"/><use xlink:href="#20" y="17.368"/><use xlink:href="#21" y="19.539"/><use xlink:href="#23" y="21.71"/><use xlink:href="#15" y="23.881"/><use xlink:href="#24" y="26.052"/><use xlink:href="#25" y="28.223"/><use xlink:href="#26" y="30.394"/><use xlink:href="#27" y="32.565"/><use xlink:href="#1" y="34.736"/><text y="38.577" class="g">exit</text></svg></svg></g></g></svg></svg>